<svg width="19" height="19" viewBox="0 0 19 19" fill="none" xmlns="http://www.w3.org/2000/svg">
<path d="M17.3334 10.998H10.6667V17.6646C10.6667 18.0183 10.5263 18.3574 10.2762 18.6074C10.0262 18.8575 9.68702 18.998 9.33339 18.998C8.97977 18.998 8.64063 18.8575 8.39058 18.6074C8.14054 18.3574 8.00006 18.0183 8.00006 17.6646V10.998H1.33339C0.979772 10.998 0.640634 10.8575 0.390586 10.6074C0.140537 10.3574 6.10352e-05 10.0183 6.10352e-05 9.66463C6.10352e-05 9.31101 0.140537 8.97187 0.390586 8.72182C0.640634 8.47178 0.979772 8.3313 1.33339 8.3313H8.00006V1.66463C8.00006 1.31101 8.14054 0.971871 8.39058 0.721823C8.64063 0.471774 8.97977 0.331299 9.33339 0.331299C9.68702 0.331299 10.0262 0.471774 10.2762 0.721823C10.5263 0.971871 10.6667 1.31101 10.6667 1.66463V8.3313H17.3334C17.687 8.3313 18.0262 8.47178 18.2762 8.72182C18.5263 8.97187 18.6667 9.31101 18.6667 9.66463C18.6667 10.0183 18.5263 10.3574 18.2762 10.6074C18.0262 10.8575 17.687 10.998 17.3334 10.998Z" fill="white"/>
</svg>
