<svg width="25" height="25" viewBox="0 0 25 25" fill="none" xmlns="http://www.w3.org/2000/svg">
<path d="M23.3334 0.667339H7.3334C7.06818 0.667339 6.81382 0.772696 6.62629 0.960233C6.43875 1.14777 6.3334 1.40212 6.3334 1.66734V6.66734H1.3334C1.06818 6.66734 0.813825 6.7727 0.626288 6.96023C0.438752 7.14777 0.333395 7.40212 0.333395 7.66734V23.6673C0.333395 23.9326 0.438752 24.1869 0.626288 24.3744C0.813825 24.562 1.06818 24.6673 1.3334 24.6673H17.3334C17.5986 24.6673 17.853 24.562 18.0405 24.3744C18.228 24.1869 18.3334 23.9326 18.3334 23.6673V18.6673H23.3334C23.5986 18.6673 23.853 18.562 24.0405 18.3744C24.228 18.1869 24.3334 17.9326 24.3334 17.6673V1.66734C24.3334 1.40212 24.228 1.14777 24.0405 0.960233C23.853 0.772696 23.5986 0.667339 23.3334 0.667339ZM16.3334 22.6673H2.3334V8.66734H16.3334V22.6673ZM22.3334 16.6673H18.3334V7.66734C18.3334 7.40212 18.228 7.14777 18.0405 6.96023C17.853 6.7727 17.5986 6.66734 17.3334 6.66734H8.3334V2.66734H22.3334V16.6673Z" fill="white"/>
</svg>
