<svg width="86" height="86" viewBox="0 0 86 86" fill="none" xmlns="http://www.w3.org/2000/svg">
<rect x="1.66665" y="1.33333" width="82.6667" height="82.6667" rx="41.3333" fill="#1B1B1B"/>
<rect x="1.66665" y="1.33333" width="82.6667" height="82.6667" rx="41.3333" fill="black" fill-opacity="0.2"/>
<rect x="1.66665" y="1.33333" width="82.6667" height="82.6667" rx="41.3333" fill="black" fill-opacity="0.2"/>
<rect x="1.66665" y="1.33333" width="82.6667" height="82.6667" rx="41.3333" stroke="#262626" stroke-width="2.66667"/>
<path d="M16.3333 31.8865C16.3333 29.0663 18.6195 26.7801 21.4397 26.7801C24.2599 26.7801 26.5461 29.0663 26.5461 31.8865C26.5461 34.7067 24.2599 36.9929 21.4397 36.9929C18.6195 36.9929 16.3333 34.7067 16.3333 31.8865Z" fill="#F35034"/>
<path d="M16.3333 42.6667C16.3333 39.8465 18.6195 37.5603 21.4397 37.5603C24.2599 37.5603 26.5461 39.8465 26.5461 42.6667C26.5461 45.4868 24.2599 47.773 21.4397 47.773C18.6195 47.773 16.3333 45.4868 16.3333 42.6667Z" fill="#F35034"/>
<path d="M16.3333 53.4468C16.3333 50.6266 18.6195 48.3404 21.4397 48.3404C24.2599 48.3404 26.5461 50.6266 26.5461 53.4468C26.5461 56.267 24.2599 58.5532 21.4397 58.5532C18.6195 58.5532 16.3333 56.267 16.3333 53.4468Z" fill="#F35034"/>
<path d="M27.1135 21.1064C27.1135 18.2862 29.3997 16 32.2199 16C35.04 16 37.3263 18.2862 37.3263 21.1064C37.3263 23.9266 35.04 26.2128 32.2199 26.2128C29.3997 26.2128 27.1135 23.9266 27.1135 21.1064Z" fill="#F35034"/>
<path d="M27.1135 31.8865C27.1135 29.0663 29.3997 26.7801 32.2199 26.7801C35.04 26.7801 37.3263 29.0663 37.3263 31.8865C37.3263 34.7067 35.04 36.9929 32.2199 36.9929C29.3997 36.9929 27.1135 34.7067 27.1135 31.8865Z" fill="#F35034"/>
<path d="M27.1135 42.6667C27.1135 39.8465 29.3997 37.5603 32.2199 37.5603C35.04 37.5603 37.3263 39.8465 37.3263 42.6667C37.3263 45.4868 35.04 47.773 32.2199 47.773C29.3997 47.773 27.1135 45.4868 27.1135 42.6667Z" fill="#F35034"/>
<path d="M27.1135 53.4468C27.1135 50.6266 29.3997 48.3404 32.2199 48.3404C35.04 48.3404 37.3263 50.6266 37.3263 53.4468C37.3263 56.267 35.04 58.5532 32.2199 58.5532C29.3997 58.5532 27.1135 56.267 27.1135 53.4468Z" fill="#F35034"/>
<path d="M27.1135 64.227C27.1135 61.4068 29.3997 59.1206 32.2199 59.1206C35.04 59.1206 37.3263 61.4068 37.3263 64.227C37.3263 67.0471 35.04 69.3333 32.2199 69.3333C29.3997 69.3333 27.1135 67.0471 27.1135 64.227Z" fill="#F35034"/>
<path d="M37.8936 21.1064C37.8936 18.2862 40.1798 16 43 16C45.8202 16 48.1064 18.2862 48.1064 21.1064C48.1064 23.9266 45.8202 26.2128 43 26.2128C40.1798 26.2128 37.8936 23.9266 37.8936 21.1064Z" fill="#F35034"/>
<path d="M37.8936 31.8865C37.8936 29.0663 40.1798 26.7801 43 26.7801C45.8202 26.7801 48.1064 29.0663 48.1064 31.8865C48.1064 34.7067 45.8202 36.9929 43 36.9929C40.1798 36.9929 37.8936 34.7067 37.8936 31.8865Z" fill="#F35034"/>
<path d="M37.8936 42.6667C37.8936 39.8465 40.1798 37.5603 43 37.5603C45.8202 37.5603 48.1064 39.8465 48.1064 42.6667C48.1064 45.4868 45.8202 47.773 43 47.773C40.1798 47.773 37.8936 45.4868 37.8936 42.6667Z" fill="#F35034"/>
<path d="M37.8936 53.4468C37.8936 50.6266 40.1798 48.3404 43 48.3404C45.8202 48.3404 48.1064 50.6266 48.1064 53.4468C48.1064 56.267 45.8202 58.5532 43 58.5532C40.1798 58.5532 37.8936 56.267 37.8936 53.4468Z" fill="#F35034"/>
<path d="M37.8936 64.227C37.8936 61.4068 40.1798 59.1206 43 59.1206C45.8202 59.1206 48.1064 61.4068 48.1064 64.227C48.1064 67.0471 45.8202 69.3333 43 69.3333C40.1798 69.3333 37.8936 67.0471 37.8936 64.227Z" fill="#F35034"/>
<path d="M48.6738 21.1064C48.6738 18.2862 50.96 16 53.7801 16C56.6003 16 58.8865 18.2862 58.8865 21.1064C58.8865 23.9266 56.6003 26.2128 53.7801 26.2128C50.96 26.2128 48.6738 23.9266 48.6738 21.1064Z" fill="#F35034"/>
<path d="M48.6738 31.8865C48.6738 29.0663 50.96 26.7801 53.7801 26.7801C56.6003 26.7801 58.8865 29.0663 58.8865 31.8865C58.8865 34.7067 56.6003 36.9929 53.7801 36.9929C50.96 36.9929 48.6738 34.7067 48.6738 31.8865Z" fill="#F35034"/>
<path d="M48.6738 42.6667C48.6738 39.8465 50.96 37.5603 53.7801 37.5603C56.6003 37.5603 58.8865 39.8465 58.8865 42.6667C58.8865 45.4868 56.6003 47.773 53.7801 47.773C50.96 47.773 48.6738 45.4868 48.6738 42.6667Z" fill="#F35034"/>
<path d="M48.6738 53.4468C48.6738 50.6266 50.96 48.3404 53.7801 48.3404C56.6003 48.3404 58.8865 50.6266 58.8865 53.4468C58.8865 56.267 56.6003 58.5532 53.7801 58.5532C50.96 58.5532 48.6738 56.267 48.6738 53.4468Z" fill="#F35034"/>
<path d="M48.6738 64.227C48.6738 61.4068 50.96 59.1206 53.7801 59.1206C56.6003 59.1206 58.8865 61.4068 58.8865 64.227C58.8865 67.0471 56.6003 69.3333 53.7801 69.3333C50.96 69.3333 48.6738 67.0471 48.6738 64.227Z" fill="#F35034"/>
<path d="M59.4539 31.8865C59.4539 29.0663 61.7401 26.7801 64.5603 26.7801C67.3805 26.7801 69.6667 29.0663 69.6667 31.8865C69.6667 34.7067 67.3805 36.9929 64.5603 36.9929C61.7401 36.9929 59.4539 34.7067 59.4539 31.8865Z" fill="#F35034"/>
<path d="M59.4539 42.6667C59.4539 39.8465 61.7401 37.5603 64.5603 37.5603C67.3805 37.5603 69.6667 39.8465 69.6667 42.6667C69.6667 45.4868 67.3805 47.773 64.5603 47.773C61.7401 47.773 59.4539 45.4868 59.4539 42.6667Z" fill="#F35034"/>
<path d="M59.4539 53.4468C59.4539 50.6266 61.7401 48.3404 64.5603 48.3404C67.3805 48.3404 69.6667 50.6266 69.6667 53.4468C69.6667 56.267 67.3805 58.5532 64.5603 58.5532C61.7401 58.5532 59.4539 56.267 59.4539 53.4468Z" fill="#F35034"/>
</svg>
